<?xml version="1.0" encoding="UTF-8"?>
<svg id="Layer_1" xmlns="http://www.w3.org/2000/svg" version="1.1" viewBox="0 0 724.792 402.521">
  <!-- Generator: Adobe Illustrator 30.2.1, SVG Export Plug-In . SVG Version: 2.1.1 Build 1)  -->
  <defs>
    <style>
      .st0 {
        fill: #d12f08;
      }

      .st1 {
        fill: #cf2900;
      }

      .st2 {
        fill: #d23711;
      }
    </style>
  </defs>
  <path d="M643.192,268.831c-6.87-25.9-32.36-34.46-57.04-32.22-8.63-17.26-24.81-28.19-44.01-29.88-20.68-1.83-39.51,6.75-53.02,22.3-25.59,29.44-30.18,70.01-25.84,107.64l4.6,31.5,29.63-6.69c-9.38-31.83-15.28-71.69.3-102.92,4.94-9.27,10.91-17.48,19.81-22.98,13.58-8.39,31.15-7.71,42.77,4.56-27.74,7.02-47.23,29.47-50.65,57.58-1.77,14.58,1.05,28.76,10.05,40.29,9.56,12.25,24.87,17.07,39.71,12.11,36.11-12.07,39.89-55.98,34.89-88.21,11.25-.05,21.47,3.4,24.06,15.61,4.55,21.44,3.91,42.96-.12,64.49-1.97,10.56-3.91,20.45-4.74,31.06l33.58,1.47,1.03-58.7c.28-16.14-.94-31.67-5.01-47.01ZM554.542,326.681c-6.37,3.23-12.76,1.38-16.46-4-4.71-6.85-5.51-14.64-4.23-22.9,2.9-18.72,16.97-33.58,36.6-36.02,4.17,18.11,4.62,53.16-15.91,62.92Z"/>
  <path d="M675.182,92.481l-.45-19.84-26.64.57c-7.91-34.57-39.02-58.35-73.9-51.94-15.66,2.87-27.78,12.49-34.56,26.61-14.62,30.48,3.44,58.63-1.15,83.64-2.27,12.37-13.49,21.81-26.27,19.28-6.41-1.27-10.54-7.49-12.64-13.45-7.62-21.61-10.42-60.84-.45-81.64l-31.65-7.37-2.15,25.8c-2.14,25.71.84,66.71,17.05,87.58,11.46,14.75,30.52,19.69,47.99,13.77,21.25-7.2,33.45-25.67,34.34-47.95,1.03-26.1-9.53-43.97-5.03-63.53,2.49-10.8,10.29-18.55,21.36-19.83,21.25-2.46,38.38,11.86,44.19,32.09-27.59,5.5-57.52,23.1-59.11,53.66-.62,12.07,3.94,23.19,12.9,31,13.21,11.49,32.3,15.02,48.24,7.45,27.22-12.93,24.31-48.67,24.07-74.5l23.86-1.4ZM618.612,148.561c-10.96,5.35-25.89.94-30.25-10.61-3.64-9.63,1.45-19.46,8.48-26.1,8.79-8.32,19.91-12.61,31.86-15.06.07,14.12,3.74,43.54-10.09,51.77Z"/>
  <path d="M203.459,341.859l-22.027,16.278c-8.705-12.033-12.59-25.719-11.382-40.338,2.051-24.828,21.09-44.857,46.246-46.78,22.303-1.705,42.721,13.681,47.293,35.27,3.397,16.038-4.864,30.733,1.109,39.12l60.474.211c7.53.026,14.721.708,21.841-.856,4.177-.69,7.127-3.628,6.227-7.999l-7.046-34.24c-46.311,7.708-73.631-21.097-111.866-37.559-19.793-8.094-41.31-8.115-61.005,1.389l-10.607-29.59c30.287-8.056,61.594-4.361,87.862,11.81l30.336,18.675c17.823,10.972,39.339,21.767,60.897,16.135l-8.291-34.131,31.84-6.257,13.734,89.536c1.873,15.844-5.21,29.57-19.667,35.655-5.975,2.515-12.389,4.064-19.256,4.369-25.477,1.134-50.396,2.017-75.808,1.077-14.984-.554-25.705-11.269-28.782-25.262-4.443-20.209,6.59-34.21-3.246-43.936-3.584-3.544-8.978-6.738-15.104-5.798-11.841,1.816-20.11,12.212-19.971,24.103.08,6.858,1.845,12.669,6.202,19.119Z"/>
  <path d="M165.042,357.761l.23-37.95c.19-31.64-7.39-65.77-29.65-89.09-15.61-16.35-37.03-24.45-59.46-21.22-18.34,2.65-33.03,13.69-41.24,30.09-5.23,10.44-6.43,21.31-8.41,32.78-2.21,4.24-11.14,4.97-15.3,3.87-3.26,3.9-5.95,7.06-8.06,11.2,7.23,4.93,15.24,4.63,23.56,1.96,1.56,22.78,5.48,60.93,18.54,79.51,9.43,13.41,24.88,19.46,41.15,15.76,15.51-3.52,27.48-14.27,33.46-29.45,9.81-24.91,4.24-54.06-13.76-73.93-14.03-15.48-33.67-21.74-54.01-18.71,3.96-17.66,14.8-28.5,32.31-28.49,12.61.01,23.59,5.7,31.92,14.96,18.31,20.36,20.79,50.12,20.02,76.78l-1.34,46.24c-.3,10.3.58,20.09,2.67,30.45l30.36-5.73c-2.55-13.25-3.07-25.81-2.99-39.03ZM91.632,290.701c22.41,23.56,18.75,64.8-5.87,73.7-10.24,3.7-19.98-.14-24.63-9.31-9.46-19.52-11.9-53.86-11.38-75.66,15.29-4.69,31.01-.17,41.88,11.27Z"/>
  <path d="M391.502,95.751c-15.74-14.46-37.43-21.02-58.29-15.5-15.49,4.1-27.31,15.09-34.99,28.89-14.22,25.52-10.6,54.69-7.96,82.76.53,5.67-.21,10.7-2.42,16.24l38.26-.3c-3.55-7.75-4.62-15.3-5.45-23.47-1.21-11.82-3.12-23.33-2.83-35.27-.02-9.74,1.97-18.54,6.1-27.02,7.56-15.5,25.85-21.11,40.33-12.28-17.13,4.67-29.68,14.15-36.52,28.82-4.44,10.22-4.3,20.96-1.99,31.88,6.44,20.28,16.06,47.96,36.78,57.05,14.93,6.55,31.13,2.6,41.17-10.32,6.03-7.76,9.77-16.81,11.98-26.73,7.1-31.82.89-71.74-24.17-94.75ZM388.082,196.741c-1.61,4.23-5.03,8.79-9.29,9.77-15.93,3.67-27.44-30.8-30.76-42.14-3.67-12.54,2.23-24.03,13.91-29.6,7.03-3.36,14.81-4.24,22.87-5.33,10.42,20.99,11.55,45.53,3.27,67.3Z"/>
  <path d="M159.334,35.346c.467-2.684,1.371-3.502,2.712-2.454,18.059-10.455,37.213-14.992,57.283-9.619,20.723,5.548,36.443,20.517,42.883,41.03,3.163,10.076,4.668,19.997,5.542,30.623l5.043,61.32c2.222,22.781,5.287,44.649,10.052,67.056l-40.181,3.178c1.203-21.833.789-42.645-.203-64.477l-6.203-74.77c-.765-9.219-3.85-18.295-10.11-24.934-9.452-10.023-24.49-11.516-36.909-5.99-12.683,5.644-21.312,16.378-26.597,29.133-5.303,13.264-6.473,27.024-5.529,42.217l-39.564.612c.838-36.143,12.451-71.811,41.782-92.924Z"/>
  <path d="M35.305,185.245l-33.942,7.851c-6.543-29.172,11.059-59.813,39.853-67.946,30.798-8.699,62.936,10.35,71.056,41.247l79.42-7.757c1.246-.122,2.273-.599,2.941-.954.976-.52,1.289-2.082,1.202-3.668l-3.414-61.907c-.122-2.21-2.374-2.984-2.646-4.987l37.394-1.926c-1.483,2.358-2.452,4.159-2.331,6.923l2.792,63.799c.769,17.572-11.108,31.787-28.768,33.83l-87.359,10.109c-14.775,1.71-27.696-7.984-30.937-22.038-3.182-13.799-15.838-22.742-29.864-19.565-10.803,4.309-16.718,14.806-15.399,26.99Z"/>
  <path d="M434.229,230.77l-13.363-166.38c-1.07-13.32-6.137-26.952-21.17-27.838-9.674-.814-18.598,3.026-26.058,9.267-7.87,6.695-13.489,14.872-19.021,24.054l-35.236-22.807c10.331-14.889,22.457-27.519,37.79-36.691,31.567-19.39,77.689-11.933,91.409,25.165,3.085,8.342,4.825,16.475,5.414,25.769l10.692,168.561c.267,4.216,3.094,6.225,6.521,8.652l-41.277,2.647c3.067-3.488,4.657-5.924,4.297-10.398Z"/>
  <path d="M685.072,343.865c1.17.385,1.142,2.049-.087,4.991l-1.049,36.835-18.22.086-1.622-75.944c-.557-26.067-1.227-50.94-2.877-76.922-.948-14.932-11.778-26.786-26.995-26.75-12.689,1.322-24.044,6.817-33.211,16.068l-22.138-22.413c15.545-14.415,34.776-22.498,56.278-22.673,25.533,1.19,48.146,20.349,50.964,46.172,2.367,21.695,1.54,42.721.816,64.522l-1.859,56.028Z"/>
  <path d="M414.202,363.037c14.31-12.297,20.565-31.861,16.773-49.856-2.182-10.353-8.424-18.43-17.853-22.192-6.97-2.781-13.826-2.364-20.444.902l-13.229-18.867c7.69-5.866,16.891-8.209,26.696-7.664,22.297,1.24,40.405,16.465,46.221,38.463,7.027,26.575-1.443,55.634-21.313,74.671-15.497,14.848-37.383,19.956-57.718,13.038l8.925-22.429c10.943,3.773,22.596,1.964,31.942-6.067Z"/>
  <path class="st1" d="M693.001,41.286c-.7,16.123-22.433,17.935-34.031,16.225-7.357-10.598-14.178-27.307-3.726-36.985,3.941-3.649,9.47-5.065,14.316-2.718,4.51,2.184,7.096,7.418,6.741,13.449,3.953-2.014,8.079-2.599,11.62-.535,3.474,2.025,5.281,5.941,5.08,10.564Z"/>
  <path class="st1" d="M266.481,51.602c-1.034-6.389,2.033-12.136,7.879-13.187,4.462-.802,8.228.898,12.828,1.978-.162-4.679.769-8.698,4.657-10.361,6.033-2.581,12.566.505,15.241,6.478,3.344,7.468,1.845,15.892-3.031,22.43-5.11,6.853-13.082,10.322-21.385,8.54-7.452-1.599-14.749-6.981-16.189-15.877Z"/>
  <path class="st0" d="M162.046,32.892c-.826.478-1.278,1.643-2.712,2.454.224-10.16-7.012-19.454-16.897-23.359-8.586-3.392-17.85-3.159-26.314,2.019-6.281,3.842-11.442,11.268-13.113,20.115-1.781,9.429,1.566,20.391,10.528,24.379,5.72,2.545,12.42,1.049,16.121-3.382,3.424-4.099,3.969-10.709.375-15.509-2.512-3.354-6.117-3.528-10.051-3.606-3.414-.067-5.284,3.499-9.214,5.132,2.16-8.312,14.415-9.467,20.098-3.593,5.592,5.781,4.743,15.717-1.368,20.64-8.321,6.702-20.46,3.75-25.503-5.783-8.678-16.406.15-37.656,17.573-43.167,18.243-5.77,36.483,5.106,40.476,23.661Z"/>
  <path class="st2" d="M684.986,348.856l.087-4.991c4.275-6.925,10.057-13.111,18.759-14.072,9.454-1.044,16.819,4.498,19.872,13.148,3.094,8.763-.481,19.315-9.853,21.607-4.298,1.051-8.434.119-11.354-2.709-2.509-2.43-4.119-6.344-2.96-10.478.76-2.712,2.899-4.937,5.189-5.448,2.533-.565,6.252-.987,6.992,2.386-2.907-.385-5.418-1.754-7.77-.12-1.516,1.053-2.936,3.056-3.018,5.682-.116,3.76,2.258,6.699,5.098,8.285,2.58,1.44,6.164,1.509,9.282.007,8.047-3.877,9.634-13.901,5.518-21.395-3.841-6.993-10.663-10.508-18.99-8.747-8.506,1.799-13.396,9.472-16.852,16.845Z"/>
</svg>